<svg width="19" height="19" viewBox="0 0 19 19" fill="none" xmlns="http://www.w3.org/2000/svg">
<path d="M4.25 2.45605L2 4.70605M17 4.70605L14.75 2.45605M5 14.4561L3.5 15.9561M14 14.4561L15.5 15.9561M9.5 6.95605V9.95605L11 11.4561M9.5 15.9561C11.0913 15.9561 12.6174 15.3239 13.7426 14.1987C14.8679 13.0735 15.5 11.5474 15.5 9.95605C15.5 8.36476 14.8679 6.83863 13.7426 5.71341C12.6174 4.5882 11.0913 3.95605 9.5 3.95605C7.9087 3.95605 6.38258 4.5882 5.25736 5.71341C4.13214 6.83863 3.5 8.36476 3.5 9.95605C3.5 11.5474 4.13214 13.0735 5.25736 14.1987C6.38258 15.3239 7.9087 15.9561 9.5 15.9561Z" stroke="#666666" stroke-width="1.5" stroke-linecap="round" stroke-linejoin="round"/>
</svg>
