<svg width="24" height="25" viewBox="0 0 24 25" fill="none" xmlns="http://www.w3.org/2000/svg">
<path d="M8 2.28125V18.2812" stroke="#999999" stroke-width="2" stroke-linecap="round" stroke-linejoin="round"/>
<path d="M14.1484 6.15005V13.8749" stroke="#999999" stroke-width="2" stroke-linecap="round" stroke-linejoin="round"/>
<path d="M16.8047 8.44104H11.4883" stroke="#999999" stroke-width="2" stroke-linecap="round" stroke-linejoin="round"/>
<path d="M20 22.2812H6C4.89543 22.2812 4 21.3858 4 20.2812M4 20.2812C4 19.1767 4.89543 18.2812 6 18.2812H20V6.28125C20 4.39563 20 3.45282 19.4142 2.86704C18.8284 2.28125 17.8856 2.28125 16 2.28125H10C7.17157 2.28125 5.75736 2.28125 4.87868 3.15993C4 4.03861 4 5.45282 4 8.28125V20.2812Z" stroke="#999999" stroke-width="2" stroke-linecap="round" stroke-linejoin="round"/>
<path d="M19.5 18.2812C19.5 18.2812 18.5 19.044 18.5 20.2812C18.5 21.5185 19.5 22.2812 19.5 22.2812" stroke="#999999" stroke-width="2" stroke-linecap="round" stroke-linejoin="round"/>
</svg>
