<svg width="19" height="19" viewBox="0 0 19 19" fill="none" xmlns="http://www.w3.org/2000/svg">
<g clip-path="url(#clip0_4892_8426)">
<path d="M16.25 7.70605H2.75M12.5 1.70605V4.70605M6.5 1.70605V4.70605M6.35 16.7061H12.65C13.9101 16.7061 14.5402 16.7061 15.0215 16.4608C15.4448 16.2451 15.789 15.9009 16.0048 15.4775C16.25 14.9962 16.25 14.3662 16.25 13.1061V6.80605C16.25 5.54594 16.25 4.91588 16.0048 4.43458C15.789 4.01121 15.4448 3.66701 15.0215 3.45129C14.5402 3.20605 13.9101 3.20605 12.65 3.20605H6.35C5.08988 3.20605 4.45982 3.20605 3.97852 3.45129C3.55516 3.66701 3.21095 4.01121 2.99524 4.43458C2.75 4.91588 2.75 5.54594 2.75 6.80605V13.1061C2.75 14.3662 2.75 14.9962 2.99524 15.4775C3.21095 15.9009 3.55516 16.2451 3.97852 16.4608C4.45982 16.7061 5.08988 16.7061 6.35 16.7061Z" stroke="#666666" stroke-width="1.5" stroke-linecap="round" stroke-linejoin="round"/>
</g>
<defs>
<clipPath id="clip0_4892_8426">
<rect width="18" height="18" fill="white" transform="translate(0.5 0.206055)"/>
</clipPath>
</defs>
</svg>
