<svg width="24" height="25" viewBox="0 0 24 25" fill="none" xmlns="http://www.w3.org/2000/svg">
<path d="M12.8809 7.29781L17.6538 8.5695M11.8578 11.0947L14.2442 11.7304M11.9765 18.2477L12.9311 18.5021C15.631 19.2214 16.981 19.5811 18.0445 18.9706C19.108 18.36 19.4698 17.0176 20.1932 14.3329L21.2163 10.536C21.9398 7.8513 22.3015 6.50893 21.6875 5.45141C21.0735 4.39389 19.7235 4.0342 17.0235 3.31483L16.0689 3.06049C13.369 2.34111 12.019 1.98143 10.9555 2.59199C9.89196 3.20255 9.53023 4.54492 8.80678 7.22966L7.78366 11.0265C7.0602 13.7112 6.69848 15.0535 7.3125 16.111C7.92652 17.1686 9.27651 17.5284 11.9765 18.2477Z" stroke="#999999" stroke-width="2" stroke-linecap="round"/>
<path d="M12 21.2274L11.0477 21.4867C8.35403 22.2202 7.00722 22.5869 5.94619 21.9644C4.88517 21.3419 4.52429 19.9732 3.80253 17.2358L2.78182 13.3645C2.06006 10.6271 1.69918 9.25843 2.31177 8.18017C2.84167 7.24744 4 7.2814 5.5 7.28128" stroke="#999999" stroke-width="2" stroke-linecap="round"/>
</svg>
