<svg width="37" height="37" viewBox="0 0 37 37" fill="none" xmlns="http://www.w3.org/2000/svg">
<path d="M8 23C6.60218 23 5.90326 23 5.35195 22.7716C4.61687 22.4672 4.03284 21.8831 3.72836 21.148C3.5 20.5967 3.5 19.8978 3.5 18.5V8.3C3.5 6.61984 3.5 5.77976 3.82698 5.13803C4.1146 4.57354 4.57354 4.1146 5.13803 3.82698C5.77976 3.5 6.61984 3.5 8.3 3.5H18.5C19.8978 3.5 20.5967 3.5 21.148 3.72836C21.8831 4.03284 22.4672 4.61687 22.7716 5.35195C23 5.90326 23 6.60218 23 8M18.8 33.5H28.7C30.3802 33.5 31.2202 33.5 31.862 33.173C32.4265 32.8854 32.8854 32.4265 33.173 31.862C33.5 31.2202 33.5 30.3802 33.5 28.7V18.8C33.5 17.1198 33.5 16.2798 33.173 15.638C32.8854 15.0735 32.4265 14.6146 31.862 14.327C31.2202 14 30.3802 14 28.7 14H18.8C17.1198 14 16.2798 14 15.638 14.327C15.0735 14.6146 14.6146 15.0735 14.327 15.638C14 16.2798 14 17.1198 14 18.8V28.7C14 30.3802 14 31.2202 14.327 31.862C14.6146 32.4265 15.0735 32.8854 15.638 33.173C16.2798 33.5 17.1198 33.5 18.8 33.5Z" stroke="black" stroke-width="3" stroke-linecap="round" stroke-linejoin="round"/>
</svg>
