<svg width="285" height="128" viewBox="0 0 285 128" fill="none" xmlns="http://www.w3.org/2000/svg">
<path d="M95.1553 14.4619H97.8615L103.592 14.9413L107.732 15.7402L111.711 16.8588L115.85 18.4567L119.83 20.3742L122.536 21.9721L125.72 24.2092L127.312 25.4875L129.382 27.2452L131.451 29.1627L133.68 31.5596L135.431 33.7967L137.182 36.1935L138.456 38.2708L139.888 40.8275L141.64 44.5027L143.072 48.3377L144.027 51.6933L144.823 55.5283L145.301 59.0437L145.46 61.2808V66.5539L144.983 71.1878L144.187 75.1826L143.391 78.2186L142.276 81.5743L140.525 85.569L138.899 88.589L139.57 89.0844C139.57 89.0844 141.114 90.2236 142.031 91.0397C143.126 92.0148 144.195 93.1924 144.664 93.7184C145.391 94.5327 146.34 95.9555 146.34 95.9555L148.326 98.6719L145.46 97.074C145.46 97.074 143.044 95.8777 141.446 95.2252C140.021 94.6429 137.741 93.8782 137.741 93.8782L135.778 93.2305L135.272 93.8782L133.521 95.9555L132.659 96.9813L131.451 98.3523L130.337 99.4709L129.063 100.589L126.994 102.347L123.969 104.584L121.104 106.342L117.601 108.259L113.781 109.857L109.96 111.136L105.98 112.094L101.682 112.734L100.249 112.893H98.3391C97.9874 112.893 97.7024 112.608 97.7024 112.257V111.259C97.7024 110.926 97.9595 110.649 98.2919 110.624L102.16 110.337L106.776 109.538L110.756 108.419L114.258 107.141L118.079 105.383L120.626 103.945L123.014 102.347L124.765 101.069L126.357 99.7905L127.949 98.3523L129.223 97.2338L130.814 95.6359L133.043 93.0792L133.397 92.6406C133.397 92.6406 131.447 92.1459 129.063 91.9578C126.454 91.752 120.626 91.6975 120.626 91.6975L119.353 103.785C119.353 103.785 117.392 105.119 115.781 105.755C114.257 106.356 111.158 107.316 111.158 107.316L106.776 108.419C106.776 108.419 103.599 109.161 102.16 109.317C100.427 109.505 97.7024 109.714 97.7024 109.714L96.6611 107.711L94.8369 104.584L92.9266 100.909L92.2898 99.6307L92.1166 99.3466L84.4893 101.548C84.4893 101.548 81.4984 102.312 79.5544 102.667C77.8244 102.982 76.8487 103.151 75.097 103.306C73.5475 103.443 72.6724 103.492 71.1172 103.466C69.4962 103.438 68.576 103.42 66.9781 103.146C65.9078 102.963 65.3139 102.813 64.2719 102.507C63.196 102.191 62.597 101.988 61.5656 101.548C60.5418 101.112 59.9575 100.868 59.0185 100.27C58.0101 99.6276 56.6306 98.3523 56.6306 98.3523C56.6306 98.3523 58.7268 99.4183 60.1328 99.9503C61.2918 100.389 61.9502 100.63 63.1575 100.909C64.4425 101.206 65.1868 101.272 66.5006 101.388C68.6679 101.581 69.9023 101.549 72.0723 101.388C73.572 101.277 75.8929 100.909 75.8929 100.909L80.5095 99.9503L85.2853 98.6719L90.8571 96.9142L90.5387 95.7957L86.3997 96.9142L81.3055 98.3523C81.3055 98.3523 78.122 99.1313 76.0521 99.4709C74.6291 99.7043 73.8279 99.8315 72.3907 99.9503C69.9124 100.155 68.4931 100.238 66.023 99.9503C64.642 99.7896 63.8675 99.6565 62.5207 99.3111C61.5109 99.0521 60.9501 98.8772 59.9737 98.5121C58.956 98.1317 58.3824 97.91 57.4266 97.3936C56.5152 96.9012 56.0416 96.5563 55.1979 95.9555C54.2949 95.3125 52.9692 94.1978 52.9692 94.1978C52.9692 94.1978 51.3273 92.8244 50.4221 91.8009C49.7051 90.9902 48.7408 89.5967 48.7408 89.5967C48.7408 89.5967 50.1469 90.4645 51.0589 91.0019C51.9233 91.5114 52.3892 91.8337 53.2876 92.2803C54.4876 92.8768 55.1984 93.1407 56.4714 93.5586C57.6322 93.9396 58.299 94.1135 59.4961 94.3576C60.2372 94.5087 60.656 94.5817 61.4064 94.6771C62.0876 94.7638 62.472 94.7967 63.1575 94.8369C64.3987 94.9098 65.0989 94.8843 66.3414 94.8369C67.2753 94.8013 67.7995 94.7723 68.7293 94.6771C69.9801 94.549 70.6768 94.4268 71.9131 94.1978C73.5446 93.8956 76.0521 93.239 76.0521 93.239L80.1911 91.9607L85.4445 90.0432L87.6732 89.2442H87.9916L86.5589 84.6103L85.2853 79.1774L84.3302 73.2651L83.8526 67.8322V58.0849L84.3302 52.3324C84.3302 52.3324 84.6879 48.9017 85.1261 46.7398C85.4804 44.9922 86.244 42.3132 86.244 42.3132L86.2405 42.2656C86.2405 42.2656 86.4292 46.171 86.7181 48.6572C86.9584 50.726 87.514 53.9304 87.514 53.9304L88.4692 58.2447L89.7427 62.5591L91.1754 66.3941L92.6082 69.5899L93.8817 71.9868L95.6329 74.7032L97.2248 76.7805L98.9759 78.698C98.9759 78.698 99.8125 79.5219 100.409 79.9763C101.164 80.5524 101.631 80.8259 102.478 81.2547C103.2 81.6198 103.608 81.8431 104.388 82.0536C105.651 82.3941 106.438 82.4033 107.732 82.2134C108.627 82.0819 109.148 81.9745 109.96 81.5743C110.564 81.2769 110.859 81.0254 111.393 80.6155C112.057 80.1057 112.417 79.7939 112.985 79.1774C113.618 78.49 114.418 77.2599 114.418 77.2599L115.85 74.7032L117.442 70.7084L118.557 66.7137L119.353 63.1983L120.308 56.9664C120.308 56.9664 120.745 52.5878 120.945 49.7758C121.236 45.6634 121.569 39.5661 121.569 39.5661C121.569 39.5661 123.714 42.0621 124.606 44.1831C125.088 45.3286 125.561 47.2191 125.561 47.2191L126.198 50.7345L126.357 52.1727L126.516 57.1262L126.198 61.7601L125.72 65.9147L124.765 72.1466L123.332 79.3372L122.686 82.0847C122.686 82.0847 125.111 82.341 126.637 82.6604C128.151 82.9772 129 83.1876 130.457 83.7071C131.845 84.2019 132.605 84.5447 133.912 85.2248C134.709 85.6396 135.909 86.368 135.909 86.368L137.112 87.136L138.456 84.4505L140.048 80.7753L141.321 76.9403L142.436 72.1466L142.913 68.791L143.072 67.0332V60.4818L142.595 56.1674L141.64 51.6933L140.366 47.5387L138.615 43.3841L136.864 40.0285L134.953 36.9925L133.362 34.9152L132.088 33.3173L130.337 31.3998L129.063 29.9617L127.79 28.8431L125.561 26.9256L122.696 24.8483L120.149 23.2504L118.238 22.1319L114.099 20.2144L110.915 19.0959L107.572 18.1371L103.752 17.3382L99.1351 16.8588H93.245L88.9468 17.3382L85.1261 18.1371L81.7831 19.0959L78.2808 20.3742L73.9826 22.4515L70.6396 24.5288L67.9333 26.4463L66.1822 27.8844L64.5902 29.3225L63.3167 30.441L62.2024 31.5596L61.088 32.8379L59.3369 34.9152L57.2674 37.9512L55.6754 40.5079L54.2427 43.2243L52.4916 47.3789L51.3772 50.7345L50.2527 55.2496C50.1696 55.5831 49.8369 55.7905 49.5009 55.7182L48.5079 55.5046C48.1601 55.4298 47.941 55.0845 48.0216 54.7379L48.9893 50.5747L50.5813 45.781L52.014 42.5852L53.9243 38.91L55.5163 36.3533L57.4266 33.6369L59.3369 31.3998L60.4512 30.1215L61.2472 29.1627L61.5656 28.8431L62.8391 27.7246L64.7494 25.9669L67.4557 23.8896L69.6844 22.2917L73.1867 20.2144L76.8481 18.4567L80.9871 16.8588L85.1261 15.7402L89.2651 14.9413L92.2898 14.6217L95.1553 14.4619ZM121.28 88.0604L120.945 90.203C120.945 90.203 124.844 90.1667 127.327 90.399C129.129 90.5676 130.054 90.643 131.842 90.9224C132.775 91.0682 134.301 91.4331 134.301 91.4331L135.674 89.7067C135.674 89.7067 133.141 88.8701 131.468 88.5471C129.756 88.2165 128.771 88.1618 127.031 88.0541C124.789 87.9153 121.28 88.0604 121.28 88.0604ZM137.52 90.5407L136.386 92.2803C136.386 92.2803 137.629 92.7385 138.377 93.0468C139.739 93.6084 141.797 94.4854 141.797 94.4854L144.479 95.6359C144.479 95.6359 141.758 92.7277 139.57 91.5089C138.797 91.0779 137.52 90.5407 137.52 90.5407Z" fill="white"/>
<path d="M104.603 56.7949H106.832L108.424 57.2743L110.175 58.3928L111.448 59.831L112.563 61.7485L113.359 63.9855L113.677 65.5834V69.5782L113.04 72.2947L111.767 75.0111L110.493 76.609L109.061 77.7276L107.309 78.5265L106.354 78.6863H104.921L103.17 78.207L101.578 77.2482L100.305 75.9699L99.0314 73.8926L98.2354 71.6555L97.917 70.3772L97.7578 68.9391V66.5422L98.3946 63.3464L99.3497 61.1093L100.623 59.3516L101.419 58.5526L102.534 57.5939L103.966 56.9547L104.603 56.7949Z" fill="white"/>
<path d="M102.369 27.0742H106.19L108.418 27.5536L110.329 28.3525L112.876 29.9505L114.786 31.868L115.901 33.4659L117.174 36.0225L117.652 37.6204V38.4194L117.174 37.94L116.697 37.1411L115.423 36.0225L115.105 34.904V34.5844L114.468 34.2648L113.672 33.7855L113.831 32.6669L112.717 31.7082L111.443 30.7494L111.284 30.27L110.488 29.9505L109.055 29.7907L108.259 30.27L108.578 31.069L109.692 31.5484L109.374 32.1875L106.827 32.9865L105.871 33.4659V34.5844L106.031 35.7029L105.553 36.1823L104.757 36.5019L104.916 37.4607L103.961 37.94H103.643L103.802 38.739V40.0173L103.324 41.2956L104.279 41.6152L105.235 42.7338L106.19 42.574L106.349 42.4142L108.578 42.574L109.374 43.3729L110.01 44.9708V46.409L109.374 47.6873L109.533 48.4863L110.17 49.2852L110.329 50.5635H112.08L112.557 50.4037L113.035 48.646L113.99 47.8471L114.786 47.5275L114.627 46.7285L114.149 46.0894L114.309 45.4502L115.264 44.6513L116.06 43.0533L116.537 42.4142V41.9348L116.06 41.775L116.219 41.4554H117.174V40.1771L116.856 39.3781L116.219 39.0586L116.06 38.4194L117.652 38.5792L117.97 39.8575V42.4142L117.492 44.9708L116.537 47.5275L115.105 49.7646L113.353 51.6821L111.125 53.28L108.737 54.3985L106.349 55.0377L103.802 55.1975L101.096 54.8779L98.7077 54.0789L96.479 52.8006L94.7279 51.3625L93.2952 49.7646L92.1808 48.0069L91.2257 45.9296L91.0665 44.9708L92.1808 45.9296L93.2952 47.0481L94.7279 50.4037L95.3647 51.0429L96.479 51.3625L97.4342 50.8831L97.5934 49.9244V49.2852L98.8669 48.8058L98.7077 47.5275L99.5037 46.2492L99.6629 45.4502L98.8669 44.6513L98.2301 44.3317L96.7974 44.1719L95.8422 42.7338L94.7279 41.9348L94.0911 41.2956H93.136L91.8624 42.2544L90.7481 44.4915L90.4297 42.574V39.3781L91.0665 36.5019L92.34 33.9452L92.8176 33.4659L92.4992 35.0638L91.7032 37.1411L92.1808 36.6617L92.8176 35.7029L94.0911 34.5844L94.7279 33.9452L95.0463 32.9865L96.3198 32.6669L97.275 32.0277H98.7077L98.2301 31.2288V30.7494L99.1853 30.1103L100.3 29.3113L101.096 29.1515L101.255 29.9505L100.777 31.069L102.369 30.1103L104.598 29.4711L106.19 29.1515L106.508 28.5123L104.439 28.3525H101.096L98.2301 29.1515L95.8422 30.4298L94.2503 32.0277H93.7727L94.0911 31.3886L95.3647 30.1103L96.9566 28.9917L99.1853 27.8732L101.255 27.234L102.369 27.0742Z" fill="white"/>
<path d="M110.013 33.625H111.446L112.242 34.1044L112.878 35.5425L113.834 36.0219V36.5012L111.286 36.661L110.809 36.9806L110.013 36.8208L108.739 35.5425L107.625 35.0631L108.103 34.5837L110.013 33.625Z" fill="white"/>
<path d="M113.672 38.2598H114.468L114.945 39.2185L115.264 40.6566L115.423 41.136H115.741L115.901 41.6154L115.105 41.4556L113.831 38.8989L113.672 38.2598Z" fill="white"/>
<path d="M14.572 65.3145H17.812L19.084 77.9865L25.06 65.3145H28.036L29.548 77.9865L35.284 65.3145H38.524L30.46 82.3545H27.268L25.732 69.9945L19.828 82.3545H16.636L14.572 65.3145ZM47.8818 69.8025C47.3058 68.5065 46.2498 67.9065 45.0258 67.9065C43.5618 67.9065 42.3618 68.6505 42.1458 69.8025C41.9058 71.1705 43.3938 71.6505 45.1938 72.5385C47.7618 73.7625 49.6818 74.7705 49.1537 77.7705C48.6978 80.3385 46.1298 82.6425 42.3138 82.6425C39.8178 82.6425 37.6578 81.4665 36.8418 79.2825L39.5538 77.4585C40.1058 78.8745 41.2578 79.7385 42.8658 79.7385C44.5458 79.7385 45.7938 78.8745 45.9618 77.8665C46.2258 76.3785 44.8818 76.0185 42.7218 74.9625C40.5618 73.9065 38.4258 72.9225 38.9778 69.8985C39.4578 67.1145 42.2658 65.0265 45.5778 65.0265C47.7858 65.0265 49.7538 66.0105 50.5458 68.0505L47.8818 69.8025ZM58.8829 82.6425C53.8669 82.6425 50.7709 78.8025 51.6589 73.8345C52.5229 68.8665 56.9869 65.0265 62.0509 65.0265C65.4109 65.0265 67.4509 66.6345 68.5309 68.6265L65.8429 70.6425C65.0989 69.2505 63.7069 68.0745 61.4989 68.0745C58.2589 68.0745 55.4989 70.5705 54.9229 73.8345C54.3469 77.0985 56.1949 79.5945 59.3869 79.5945C61.4989 79.5945 63.0349 78.7545 64.3069 77.4345L64.5949 75.7785H60.7069L61.1869 73.1385H68.0509L67.0909 78.6105C65.1709 80.8665 62.3149 82.6425 58.8829 82.6425Z" fill="white"/>
<path d="M155.842 28.8181H159.366L160.75 42.6029L167.251 28.8181H170.488L172.133 42.6029L178.373 28.8181H181.897L173.125 47.3545H169.653L167.982 33.9091L161.559 47.3545H158.087L155.842 28.8181ZM188.258 33.7263C192.331 33.7263 194.759 36.7809 194.08 40.697C193.402 44.6132 189.877 47.6678 185.804 47.6678C181.732 47.6678 179.304 44.6132 179.982 40.697C180.661 36.7809 184.186 33.7263 188.258 33.7263ZM187.71 36.807C185.622 36.807 183.82 38.4779 183.429 40.697C183.037 42.9162 184.264 44.5871 186.353 44.5871C188.441 44.5871 190.243 42.9162 190.634 40.697C191.026 38.4779 189.799 36.807 187.71 36.807ZM201.452 34.0396L201.034 36.3632C201.974 34.7445 203.515 33.7263 205.29 33.7263C205.603 33.7263 205.916 33.7785 206.073 33.8307L205.499 37.0942C205.394 37.042 205.081 36.9898 204.794 36.9898C202.444 36.9898 200.669 38.7651 200.173 41.5064L199.155 47.3545H195.761L198.11 34.0396H201.452ZM212.024 44.6393C213.956 44.6393 215.836 43.0728 216.254 40.6709C216.672 38.2951 215.366 36.7548 213.434 36.7548C211.528 36.7548 209.622 38.3213 209.205 40.6709C208.787 43.0467 210.119 44.6393 212.024 44.6393ZM215.497 45.4486C214.374 46.9107 212.312 47.6678 210.797 47.6678C207.351 47.6678 205.054 44.7959 205.785 40.697C206.49 36.7026 209.675 33.7263 213.304 33.7263C214.896 33.7263 216.41 34.4834 217.011 35.7366L218.212 28.8181H221.606L218.342 47.3545H215.157L215.497 45.4486ZM165.867 59.7002C165.241 58.2904 164.092 57.6377 162.76 57.6377C161.168 57.6377 159.862 58.447 159.627 59.7002C159.366 61.1883 160.985 61.7105 162.943 62.6765C165.737 64.008 167.825 65.1045 167.251 68.3679C166.755 71.1615 163.961 73.6678 159.81 73.6678C157.095 73.6678 154.745 72.3885 153.858 70.0127L156.808 68.0285C157.408 69.5689 158.661 70.5088 160.411 70.5088C162.238 70.5088 163.596 69.5689 163.778 68.4724C164.066 66.8537 162.604 66.4621 160.254 65.3133C157.904 64.1646 155.581 63.0942 156.181 59.8046C156.703 56.7761 159.758 54.5048 163.361 54.5048C165.763 54.5048 167.903 55.5752 168.765 57.7943L165.867 59.7002ZM177.808 65.0523L177.834 64.8956C178.095 63.4075 177.156 62.6765 175.563 62.6765C174.127 62.6765 172.77 63.3553 171.751 64.3213L170.368 62.1543C171.882 60.6662 173.944 59.7263 176.32 59.7263C179.871 59.7263 181.698 61.7105 181.124 64.9217L179.636 73.3545H176.503L176.816 71.5531C175.824 72.8846 174.284 73.6678 172.508 73.6678C169.976 73.6678 168.41 72.023 168.801 69.7516C169.167 67.7414 170.916 66.3576 173.84 65.8094L177.808 65.0523ZM173.657 71.057C175.485 71.057 177.051 69.6211 177.364 67.9241L177.469 67.3497L174.232 67.9502C172.952 68.1852 172.273 68.6812 172.117 69.5428C171.96 70.4304 172.587 71.057 173.657 71.057ZM183.242 73.3545L185.592 60.0396H188.855L188.542 61.8671C189.612 60.4834 191.074 59.7263 193.006 59.7263C196.113 59.7263 197.81 61.7888 197.21 65.2872L195.774 73.3545H192.38L193.737 65.6789C194.077 63.773 193.137 62.7548 191.57 62.7548C189.456 62.7548 188.176 64.6607 187.837 66.4882L186.636 73.3545H183.242ZM211.468 70.8482C209.953 72.5713 207.76 73.6678 205.384 73.6678C201.364 73.6678 198.884 70.6132 199.562 66.6709C200.241 62.7809 203.818 59.7263 207.839 59.7263C210.24 59.7263 211.885 60.7706 212.799 62.6504L210.214 64.6868C209.666 63.5119 208.726 62.7809 207.316 62.7809C205.202 62.7809 203.4 64.4779 203.009 66.697C202.617 68.9423 203.87 70.6132 205.985 70.6132C207.421 70.6132 208.622 69.9083 209.64 68.8379L211.468 70.8482ZM215.779 62.7548H213.899L214.369 60.0396H216.353L216.98 56.4106H220.269L219.643 60.0396H222.802L222.332 62.7548H219.173L218.128 68.6812C217.893 70.0127 218.442 70.6132 219.643 70.6132C220.034 70.6132 220.687 70.561 221.366 70.1694L220.818 73.1456C220.165 73.4589 219.303 73.6678 218.207 73.6678C215.492 73.6678 214.134 72.0491 214.63 69.1773L215.779 62.7548ZM227.975 73.6678C224.868 73.6678 223.171 71.6053 223.797 68.1069L225.207 60.0396H228.601L227.244 67.7152C226.904 69.6211 227.844 70.6393 229.411 70.6393C231.525 70.6393 232.805 68.7334 233.144 66.9059L234.345 60.0396H237.739L235.389 73.3545H232.126L232.439 71.527C231.369 72.9107 229.907 73.6678 227.975 73.6678ZM247.82 65.0523L247.846 64.8956C248.107 63.4075 247.167 62.6765 245.574 62.6765C244.138 62.6765 242.781 63.3553 241.763 64.3213L240.379 62.1543C241.893 60.6662 243.956 59.7263 246.331 59.7263C249.882 59.7263 251.71 61.7105 251.135 64.9217L249.647 73.3545H246.514L246.827 71.5531C245.835 72.8846 244.295 73.6678 242.52 73.6678C239.987 73.6678 238.421 72.023 238.812 69.7516C239.178 67.7414 240.927 66.3576 243.851 65.8094L247.82 65.0523ZM243.668 71.057C245.496 71.057 247.062 69.6211 247.376 67.9241L247.48 67.3497L244.243 67.9502C242.964 68.1852 242.285 68.6812 242.128 69.5428C241.971 70.4304 242.598 71.057 243.668 71.057ZM258.945 60.0396L258.527 62.3632C259.467 60.7445 261.007 59.7263 262.783 59.7263C263.096 59.7263 263.409 59.7785 263.566 59.8307L262.992 63.0942C262.887 63.042 262.574 62.9898 262.287 62.9898C259.937 62.9898 258.162 64.7651 257.666 67.5064L256.647 73.3545H253.253L255.603 60.0396H258.945ZM261.44 78.4455L261.936 75.5736C262.563 75.9653 263.242 76.0175 263.633 76.0175C264.73 76.0175 265.67 75.5475 266.531 73.8505L266.975 72.989L263.92 60.0396H267.549L269.299 69.3078L274.311 60.0396H277.836L269.272 74.8687C267.654 77.61 266.061 78.8893 263.581 78.8893C262.798 78.8893 262.041 78.7327 261.44 78.4455ZM163.021 99.6678C157.565 99.6678 154.197 95.4906 155.163 90.0863C156.103 84.682 160.959 80.5048 166.468 80.5048C170.123 80.5048 172.342 82.254 173.517 84.4209L170.593 86.614C169.783 85.0997 168.269 83.8205 165.867 83.8205C162.343 83.8205 159.34 86.5356 158.714 90.0863C158.087 93.6369 160.097 96.3521 163.57 96.3521C165.867 96.3521 167.538 95.4383 168.922 94.0024L169.235 92.201H165.006L165.528 89.3292H172.994L171.95 95.2817C169.862 97.7358 166.755 99.6678 163.021 99.6678ZM174.789 95.7516L177.425 80.8181H180.819L178.287 95.1512C178.156 95.9866 178.183 96.6654 179.201 96.6654C179.436 96.6654 179.749 96.6393 180.115 96.5088L179.618 99.3806C179.149 99.5634 178.6 99.6678 177.974 99.6678C175.781 99.6678 174.293 98.5452 174.789 95.7516ZM190.298 85.7263C194.371 85.7263 196.799 88.7809 196.12 92.697C195.441 96.6132 191.917 99.6678 187.844 99.6678C183.771 99.6678 181.343 96.6132 182.022 92.697C182.701 88.7809 186.225 85.7263 190.298 85.7263ZM189.75 88.807C187.661 88.807 185.86 90.4779 185.468 92.697C185.077 94.9162 186.304 96.5871 188.392 96.5871C190.481 96.5871 192.282 94.9162 192.674 92.697C193.066 90.4779 191.838 88.807 189.75 88.807ZM205.058 96.6393C206.964 96.6393 208.87 95.0467 209.288 92.6709C209.705 90.3213 208.374 88.7548 206.468 88.7548C204.536 88.7548 202.656 90.2951 202.238 92.6709C201.821 95.0728 203.126 96.6393 205.058 96.6393ZM201.325 97.4486L200.985 99.3545H197.8L201.064 80.8181H204.458L203.257 87.7366C204.275 86.4834 206.05 85.7263 207.643 85.7263C211.272 85.7263 213.413 88.7026 212.708 92.697C211.977 96.7959 208.687 99.6678 205.241 99.6678C203.727 99.6678 201.925 98.9107 201.325 97.4486ZM222.961 91.0523L222.987 90.8956C223.248 89.4075 222.309 88.6765 220.716 88.6765C219.28 88.6765 217.922 89.3553 216.904 90.3213L215.521 88.1543C217.035 86.6662 219.097 85.7263 221.473 85.7263C225.024 85.7263 226.851 87.7105 226.277 90.9217L224.789 99.3545H221.656L221.969 97.5531C220.977 98.8846 219.437 99.6678 217.661 99.6678C215.129 99.6678 213.562 98.023 213.954 95.7516C214.32 93.7414 216.069 92.3576 218.993 91.8094L222.961 91.0523ZM218.81 97.057C220.638 97.057 222.204 95.6211 222.517 93.9241L222.622 93.3497L219.384 93.9502C218.105 94.1852 217.426 94.6812 217.27 95.5428C217.113 96.4304 217.74 97.057 218.81 97.057ZM228.865 95.7516L231.502 80.8181H234.896L232.363 95.1512C232.233 95.9866 232.259 96.6654 233.277 96.6654C233.512 96.6654 233.825 96.6393 234.191 96.5088L233.695 99.3806C233.225 99.5634 232.677 99.6678 232.05 99.6678C229.857 99.6678 228.369 98.5452 228.865 95.7516Z" fill="white"/>
</svg>
